<?xml version="1.0" encoding="UTF-8" standalone="no"?>
<!DOCTYPE svg PUBLIC "-//W3C//DTD SVG 1.1//EN"
 "http://www.w3.org/Graphics/SVG/1.1/DTD/svg11.dtd">
<!-- Generated by graphviz version 2.30.1 (20180828.1746)
 -->
<!-- Title: %3 Pages: 1 -->
<svg width="829pt" height="260pt"
 viewBox="0.00 0.00 829.00 260.00" xmlns="http://www.w3.org/2000/svg" xmlns:xlink="http://www.w3.org/1999/xlink">
<g id="graph0" class="graph" transform="scale(1 1) rotate(0) translate(4 256)">
<title>%3</title>
<polygon fill="white" stroke="white" points="-4,5 -4,-256 826,-256 826,5 -4,5"/>
<!-- [root] aws_eip.firsteip (expand) -->
<g id="node1" class="node"><title>[root] aws_eip.firsteip (expand)</title>
<polygon fill="none" stroke="black" points="284.25,-108 183.75,-108 183.75,-72 284.25,-72 284.25,-108"/>
<text text-anchor="middle" x="234" y="-86.3" font-family="Times,serif" font-size="14.00">aws_eip.firsteip</text>
</g>
<!-- [root] provider[&quot;registry.terraform.io/hashicorp/aws&quot;] -->
<g id="node4" class="node"><title>[root] provider[&quot;registry.terraform.io/hashicorp/aws&quot;]</title>
<polygon fill="none" stroke="black" points="366,-36 115.984,-18 366,-3.55271e-15 616.016,-18 366,-36"/>
<text text-anchor="middle" x="366" y="-14.3" font-family="Times,serif" font-size="14.00">provider[&quot;registry.terraform.io/hashicorp/aws&quot;]</text>
</g>
<!-- [root] aws_eip.firsteip (expand)&#45;&gt;[root] provider[&quot;registry.terraform.io/hashicorp/aws&quot;] -->
<g id="edge1" class="edge"><title>[root] aws_eip.firsteip (expand)&#45;&gt;[root] provider[&quot;registry.terraform.io/hashicorp/aws&quot;]</title>
<path fill="none" stroke="black" d="M266.291,-71.8761C285.135,-61.8828 308.992,-49.2317 328.644,-38.81"/>
<polygon fill="black" stroke="black" points="330.433,-41.8228 337.628,-34.0456 327.154,-35.6386 330.433,-41.8228"/>
</g>
<!-- [root] aws_instance.myec2 (expand) -->
<g id="node2" class="node"><title>[root] aws_instance.myec2 (expand)</title>
<polygon fill="none" stroke="black" points="429,-108 303,-108 303,-72 429,-72 429,-108"/>
<text text-anchor="middle" x="366" y="-86.3" font-family="Times,serif" font-size="14.00">aws_instance.myec2</text>
</g>
<!-- [root] aws_instance.myec2 (expand)&#45;&gt;[root] provider[&quot;registry.terraform.io/hashicorp/aws&quot;] -->
<g id="edge2" class="edge"><title>[root] aws_instance.myec2 (expand)&#45;&gt;[root] provider[&quot;registry.terraform.io/hashicorp/aws&quot;]</title>
<path fill="none" stroke="black" d="M366,-71.6966C366,-63.9827 366,-54.7125 366,-46.1124"/>
<polygon fill="black" stroke="black" points="369.5,-46.1043 366,-36.1043 362.5,-46.1044 369.5,-46.1043"/>
</g>
<!-- [root] aws_security_group.cloud&#45;test (expand) -->
<g id="node3" class="node"><title>[root] aws_security_group.cloud&#45;test (expand)</title>
<polygon fill="none" stroke="black" points="627,-108 447,-108 447,-72 627,-72 627,-108"/>
<text text-anchor="middle" x="537" y="-86.3" font-family="Times,serif" font-size="14.00">aws_security_group.cloud&#45;test</text>
</g>
<!-- [root] aws_security_group.cloud&#45;test (expand)&#45;&gt;[root] provider[&quot;registry.terraform.io/hashicorp/aws&quot;] -->
<g id="edge3" class="edge"><title>[root] aws_security_group.cloud&#45;test (expand)&#45;&gt;[root] provider[&quot;registry.terraform.io/hashicorp/aws&quot;]</title>
<path fill="none" stroke="black" d="M495.169,-71.8761C469.543,-61.386 436.763,-47.9673 410.638,-37.2729"/>
<polygon fill="black" stroke="black" points="411.92,-34.0159 401.34,-33.4666 409.268,-40.4942 411.92,-34.0159"/>
</g>
<!-- [root] meta.count&#45;boundary (EachMode fixup) -->
<g id="node5" class="node"><title>[root] meta.count&#45;boundary (EachMode fixup)</title>
<ellipse fill="none" stroke="black" cx="176" cy="-162" rx="176.202" ry="18"/>
<text text-anchor="middle" x="176" y="-158.3" font-family="Times,serif" font-size="14.00">[root] meta.count&#45;boundary (EachMode fixup)</text>
</g>
<!-- [root] meta.count&#45;boundary (EachMode fixup)&#45;&gt;[root] aws_eip.firsteip (expand) -->
<g id="edge4" class="edge"><title>[root] meta.count&#45;boundary (EachMode fixup)&#45;&gt;[root] aws_eip.firsteip (expand)</title>
<path fill="none" stroke="black" d="M190.04,-144.055C196.989,-135.668 205.517,-125.376 213.206,-116.096"/>
<polygon fill="black" stroke="black" points="216.001,-118.209 219.686,-108.275 210.611,-113.742 216.001,-118.209"/>
</g>
<!-- [root] meta.count&#45;boundary (EachMode fixup)&#45;&gt;[root] aws_instance.myec2 (expand) -->
<g id="edge5" class="edge"><title>[root] meta.count&#45;boundary (EachMode fixup)&#45;&gt;[root] aws_instance.myec2 (expand)</title>
<path fill="none" stroke="black" d="M221.027,-144.411C247.746,-134.567 281.837,-122.007 310.246,-111.541"/>
<polygon fill="black" stroke="black" points="311.471,-114.82 319.644,-108.078 309.051,-108.251 311.471,-114.82"/>
</g>
<!-- [root] meta.count&#45;boundary (EachMode fixup)&#45;&gt;[root] aws_security_group.cloud&#45;test (expand) -->
<g id="edge6" class="edge"><title>[root] meta.count&#45;boundary (EachMode fixup)&#45;&gt;[root] aws_security_group.cloud&#45;test (expand)</title>
<path fill="none" stroke="black" d="M254.332,-145.811C308.632,-135.282 381.325,-121.186 439.395,-109.926"/>
<polygon fill="black" stroke="black" points="440.17,-113.341 449.32,-108.002 438.837,-106.469 440.17,-113.341"/>
</g>
<!-- [root] provider[&quot;registry.terraform.io/hashicorp/aws&quot;] (close) -->
<g id="node6" class="node"><title>[root] provider[&quot;registry.terraform.io/hashicorp/aws&quot;] (close)</title>
<ellipse fill="none" stroke="black" cx="596" cy="-162" rx="225.295" ry="18"/>
<text text-anchor="middle" x="596" y="-158.3" font-family="Times,serif" font-size="14.00">[root] provider[&quot;registry.terraform.io/hashicorp/aws&quot;] (close)</text>
</g>
<!-- [root] provider[&quot;registry.terraform.io/hashicorp/aws&quot;] (close)&#45;&gt;[root] aws_eip.firsteip (expand) -->
<g id="edge7" class="edge"><title>[root] provider[&quot;registry.terraform.io/hashicorp/aws&quot;] (close)&#45;&gt;[root] aws_eip.firsteip (expand)</title>
<path fill="none" stroke="black" d="M494.815,-145.897C438.451,-136.852 366.878,-124.328 294.124,-107.897"/>
<polygon fill="black" stroke="black" points="294.846,-104.472 284.318,-105.661 293.29,-111.297 294.846,-104.472"/>
</g>
<!-- [root] provider[&quot;registry.terraform.io/hashicorp/aws&quot;] (close)&#45;&gt;[root] aws_instance.myec2 (expand) -->
<g id="edge8" class="edge"><title>[root] provider[&quot;registry.terraform.io/hashicorp/aws&quot;] (close)&#45;&gt;[root] aws_instance.myec2 (expand)</title>
<path fill="none" stroke="black" d="M541.784,-144.5C508.886,-134.487 466.675,-121.64 431.862,-111.045"/>
<polygon fill="black" stroke="black" points="432.839,-107.684 422.253,-108.121 430.801,-114.381 432.839,-107.684"/>
</g>
<!-- [root] provider[&quot;registry.terraform.io/hashicorp/aws&quot;] (close)&#45;&gt;[root] aws_security_group.cloud&#45;test (expand) -->
<g id="edge9" class="edge"><title>[root] provider[&quot;registry.terraform.io/hashicorp/aws&quot;] (close)&#45;&gt;[root] aws_security_group.cloud&#45;test (expand)</title>
<path fill="none" stroke="black" d="M581.416,-143.697C574.342,-135.305 565.717,-125.07 557.955,-115.861"/>
<polygon fill="black" stroke="black" points="560.537,-113.495 551.417,-108.104 555.185,-118.006 560.537,-113.495"/>
</g>
<!-- [root] root -->
<g id="node7" class="node"><title>[root] root</title>
<ellipse fill="none" stroke="black" cx="386" cy="-234" rx="47.169" ry="18"/>
<text text-anchor="middle" x="386" y="-230.3" font-family="Times,serif" font-size="14.00">[root] root</text>
</g>
<!-- [root] root&#45;&gt;[root] meta.count&#45;boundary (EachMode fixup) -->
<g id="edge10" class="edge"><title>[root] root&#45;&gt;[root] meta.count&#45;boundary (EachMode fixup)</title>
<path fill="none" stroke="black" d="M351.323,-221.441C319.776,-210.925 272.554,-195.185 235.064,-182.688"/>
<polygon fill="black" stroke="black" points="235.858,-179.264 225.265,-179.422 233.645,-185.904 235.858,-179.264"/>
</g>
<!-- [root] root&#45;&gt;[root] provider[&quot;registry.terraform.io/hashicorp/aws&quot;] (close) -->
<g id="edge11" class="edge"><title>[root] root&#45;&gt;[root] provider[&quot;registry.terraform.io/hashicorp/aws&quot;] (close)</title>
<path fill="none" stroke="black" d="M420.677,-221.441C452.011,-210.996 498.806,-195.398 536.172,-182.943"/>
<polygon fill="black" stroke="black" points="537.566,-186.167 545.946,-179.685 535.352,-179.527 537.566,-186.167"/>
</g>
</g>
</svg>
